<svg xmlns="http://www.w3.org/2000/svg" width="210" height="210" fill="none" viewBox="0 0 210 210">
<!-- SVG created with Arrow, by QuiverAI (https://quiver.ai) -->
  <path d="m39.66 196.5 0.22-179.6c-0.1-7.08 2.91-11.06 8.19-11.28l112.3-0.51c6.7 0.2 9.32 4.53 9.32 11.79l-0.44 176.8c0 6.51-2.96 10.26-6.16 9.9l-3-0.18-2.34-0.5-45.91-13.97c-5.67-2.07-8.62-1.84-13.95-0.08l-49.56 15.88c-5.62 1.16-8.69-2.11-8.69-8.24z" fill="#D6C9AE"/>
  <path d="m40.61 196-0.23-178.4c-0.06-7.24 2.68-10.99 7.8-10.99h110.5c6.98 0 9.92 3.66 9.92 11.38l-0.82 176.2c-0.15 6.9-3.33 9.54-8.97 8.77l-46.54-15.24c-5.52-1.63-7.62-1.49-12.62-0.22l-50.4 15.18c-5.52 1.57-8.67-0.56-8.67-6.64z" fill="#E6D6BF"/>
  <path d="m45.17 186.7 0.14-162.8c0-7.66 2.2-11.61 7.67-11.64l42.99 0.33 12.81-0.6 14.99 0.27 16.17-0.8 15.04-0.18c7.19 0.21 9.19 4.71 9.19 12.94l-0.52 16.48-0.54 77.31 0.54 40.96 0.52 26.25c0 7.61-1.51 10.56-6.36 10.11-7.53-0.7-25.94-7.44-47.72-14.39-5.08-1.46-7.84-1.25-13.18 0.51-13.88 4.74-30.06 8.8-43.3 15.06-6.7 2.01-8.44-2.07-8.44-9.79z" fill="#F7F4E3" stroke="#B5AE94" stroke-miterlimit="10" stroke-width=".7"/>
  <path d="m107.7 82.91c-4.01-9.83-4.04-20.89 0.14-29.99 5.9-12.83 17.34-17.19 29.41-25.21l0.4-0.29c-1.43 9.52 0.3 13.81-0.23 22.91-0.58 10.08-8.33 22.6-23.68 29.46-2.63 1.02-5.21 2-6.04 3.12z" fill="#A5936B" stroke="#5E4730" stroke-linecap="round" stroke-linejoin="round" stroke-miterlimit="10" stroke-width=".7"/>
  <path d="m136.4 28.51-27.83 53.45-7.88 50.06" stroke="#5E4730" stroke-linecap="round" stroke-linejoin="round" stroke-miterlimit="10" stroke-width=".7"/>
  <path d="m118.7 87.19c9.58-5.77 20.06-6.76 30.37-11.05l3.33-2.23c-6.3 15.95-9.39 31.24-26.24 37.68-8.19 3.33-16.75 4.23-21.17 3.72l-3.6 4.91c-1.36-12.91 4.78-25.47 17.31-33.03z" fill="#A5936B" stroke="#5E4730" stroke-linecap="round" stroke-linejoin="round" stroke-miterlimit="10" stroke-width=".7"/>
  <path d="m150.1 76.14-37.45 27.37-10.49 13.83" stroke="#5E4730" stroke-linecap="round" stroke-linejoin="round" stroke-miterlimit="10" stroke-width=".3"/>
  <path d="m118.3 87.61-5.53 16.22" stroke="#5E4730" stroke-linecap="round" stroke-linejoin="round" stroke-miterlimit="10" stroke-width=".3"/>
  <path d="m127 98.75c4.47 0.21 8.83-0.7 13.17-2.13" stroke="#5E4730" stroke-linecap="round" stroke-linejoin="round" stroke-miterlimit="10" stroke-width=".3"/>
  <path d="m134.1 82.51-6.7 12.62" stroke="#5E4730" stroke-linecap="round" stroke-linejoin="round" stroke-miterlimit="10" stroke-width=".3"/>
  <path d="m110.1 49.93 3.13 20.03" stroke="#5E4730" stroke-linecap="round" stroke-linejoin="round" stroke-miterlimit="10" stroke-width=".3"/>
  <path d="m122.1 39.11-1.96 17.02 13.82-9.06" stroke="#5E4730" stroke-linecap="round" stroke-linejoin="round" stroke-miterlimit="10" stroke-width=".3"/>
  <path d="m131.4 63.02-18.5 8.2" stroke="#5E4730" stroke-linecap="round" stroke-linejoin="round" stroke-miterlimit="10" stroke-width=".3"/>
  <path d="m98.52 135.1c-7.84-1.6-17.41-1.46-25.33-7.8-9.18-6.86-10.58-19.21-15.47-33.38 7.18 6.01 14.46 7.07 23.59 10.4 8.9 3.83 16.23 13.3 17.3 25.51l-0.09 5.27z" fill="#A5936B" stroke="#5E4730" stroke-linecap="round" stroke-linejoin="round" stroke-miterlimit="10" stroke-width=".3"/>
  <path d="m58.75 95.61c7.24 8.87 9.66 12.53 20.06 18.08l19.97 21.07" stroke="#5E4730" stroke-linecap="round" stroke-linejoin="round" stroke-miterlimit="10" stroke-width=".3"/>
  <path d="m64.28 108.5c3.65 3.52 6 3.72 12.82 4.54" stroke="#5E4730" stroke-linecap="round" stroke-linejoin="round" stroke-miterlimit="10" stroke-width=".3"/>
  <path d="m77.78 104.2 4.39 13.65" stroke="#5E4730" stroke-linecap="round" stroke-linejoin="round" stroke-miterlimit="10" stroke-width=".3"/>
  <path d="m89.71 112.6 3.06 13.1" stroke="#5E4730" stroke-linecap="round" stroke-linejoin="round" stroke-miterlimit="10" stroke-width=".3"/>
  <path d="m72.54 123c5.27 1.83 11.34-0.03 17.17 2.18" stroke="#5E4730" stroke-linecap="round" stroke-linejoin="round" stroke-miterlimit="10" stroke-width=".3"/>
  <path d="m100 89.01c-0.82 7.41-1.3 9.44-1.16 14.1l-0.7-0.5c-2.08-2.69-2.45-2.83-6.28-4.49-9.57-3.3-18.3-10.8-20.83-20.09-2.09-8.15 1.46-20.48 1.21-26.81l0.3 0.09c4.31 6.75 7.65 7.9 14.22 12.56 8.14 5.61 13.13 13.11 13.24 25.14z" fill="#A5936B" stroke="#5E4730" stroke-linecap="round" stroke-linejoin="round" stroke-miterlimit="10" stroke-width=".3"/>
  <path d="m73.61 52.92c5.03 10.82 8.1 15.79 15.11 26.19l9.04 19.78" stroke="#5E4730" stroke-linecap="round" stroke-linejoin="round" stroke-miterlimit="10" stroke-width=".3"/>
  <path d="m74.79 71.11c2.82 3.65 7.77 4.97 12.47 8" stroke="#5E4730" stroke-linecap="round" stroke-linejoin="round" stroke-miterlimit="10" stroke-width=".3"/>
  <path d="m87.52 67.78 0.22 11.13" stroke="#5E4730" stroke-linecap="round" stroke-linejoin="round" stroke-miterlimit="10" stroke-width=".3"/>
  <path d="m96.71 77.92-1.6 16.39" stroke="#5E4730" stroke-linecap="round" stroke-linejoin="round" stroke-miterlimit="10" stroke-width=".3"/>
  <path d="m77.92 86.01c4.19 4.03 9.74 6.26 16.89 7.9" stroke="#5E4730" stroke-linecap="round" stroke-linejoin="round" stroke-miterlimit="10" stroke-width=".3"/>
  <path d="m122.6 127.5c6.19 3.25 9.76 10.71 5.73 19.69-5.16 11.79-18.18 17.61-27.34 16.9-6.88-0.54-11.39-7.84-11.7-11.84-0.7-9.19 6.6-18.29 15.53-24.58 4.77-3.22 14.44-3.82 17.07-1.02l0.71 0.85z" fill="#A97253" stroke="#5E4730" stroke-linecap="round" stroke-linejoin="round" stroke-miterlimit="10" stroke-width=".7"/>
  <path d="m123.7 128.8c3.45 3.33 3.91 8.27 1.41 14.53-3.92 8.55-16.2 16.81-24.28 16.81-3.16 0-5.58-0.74-7.93-2.9 2.97-6.74 6.86-9.87 15.22-12.79 7.58-2.72 12.82-7.09 15.58-15.65z" fill="#8F583A" stroke="#5E4730" stroke-linecap="round" stroke-linejoin="round" stroke-miterlimit="10" stroke-width=".7"/>
</svg>