<svg xmlns="http://www.w3.org/2000/svg" width="200" height="200" fill="none" viewBox="0 0 200 200">
<!-- SVG created with Arrow, by QuiverAI (https://quiver.ai) -->
  <path d="m33 79.22c0-35.2 27.19-74.22 66.48-74.22h1.04c38.4 0 66.59 37.16 66.59 73.4v7.31l-0.41 40.58c-1.99 33.69-26.99 68.93-66.18 68.93h-1.04c-36.21 0-66.48-31.75-66.48-70.44v-45.56z" fill="#A39E75"/>
  <path d="m35.01 79.12c0-33.51 27.13-71.13 63.77-71.13h1.93c36.41 0 65.36 35.72 65.36 70.51v6.97l-0.56 40.07c-1.99 32.1-27.57 66.69-64.8 66.69h-1.93c-35.58 0-63.77-32.11-63.77-67.95v-45.16z" fill="#FEFFFE" stroke="#999684" stroke-width=".7"/>
  <path d="m38.61 82.52c0-33.46 24.48-70.22 59.48-70.22h1.8c33.2 0 59.51 33.79 59.51 65.81v6.5l-0.52 37.97c-1.82 30.8-25.17 64.18-58.99 64.18h-1.8c-32.88 0-59.48-30.65-59.48-64.75v-39.49z" fill="#FEFFFE" stroke="#999684" stroke-width=".7"/>
  <path d="m100.1 34.78c0-1.1 8.9-1.99 19.8-1.99s16.96 0.63 16.96 2.02c0 1.4-6.44 3.15-16.96 3.15s-19.8-1.2-19.8-3.18z" fill="#FEFFFE" stroke="#999684" stroke-linecap="round" stroke-linejoin="round" stroke-width=".5"/>
  <path d="m100.6 35.7 12.63 23.89-0.12 0.7c-6.47 0.5-11.04 0.44-11.04 1.66 0 1.39 6.28 2.51 16.9 2.51s16.52-0.85 16.52-3.14c0-1.21-4.02-1.25-10.13-1.82l0.22-0.88 11.23-22.7" fill="#FEFFFE"/>
  <path d="m100.6 35.7 12.63 23.89-0.12 0.7c-6.47 0.5-11.04 0.44-11.04 1.66 0 1.39 6.28 2.51 16.9 2.51s16.52-0.85 16.52-3.14c0-1.21-4.02-1.25-10.13-1.82l0.22-0.88 11.23-22.7" stroke="#999684" stroke-linecap="round" stroke-linejoin="round" stroke-width=".5"/>
  <path d="m135.2 39.79c1.11-0.79 5.07-0.83 6.37 1.56 1.74 3.37-0.71 7.02-7.86 10.03l-4.55 2.13 1.64-3.46c4.38 0 8.95-2.92 9.68-6.19 0.49-2.23-1.61-3.85-4.22-3.25l-1.06-0.82z" fill="#FEFFFE" stroke="#999684" stroke-linecap="round" stroke-linejoin="round" stroke-width=".5"/>
  <path d="m132.9 61.95-1.5 5.09 8.15 24.55c1.9 5.7-1.25 8.51-8.15 10.03h-23.19l-2.39-1.22c-2.93-1.43-5.43-3.11-4.92-7.69l3.04-10.26 2.09-9.23-1.73-8.15 0.88-1.9" stroke="#999684" stroke-linecap="round" stroke-linejoin="round" stroke-width=".5"/>
  <path d="m104.3 63.91 4.45 0.95 0.42 1.46c4.81 0.63 13.47 0.63 18.5-0.21l0.74-1.65 4.03-0.73" stroke="#999684" stroke-linecap="round" stroke-linejoin="round" stroke-width=".5"/>
  <path d="m133.1 67.58 3.69-0.31c3.64 0 6.54 3.51 8.93 12.84 1.39 6.65-0.89 7.82-5.46 10.3l-1.22-2.38 3.26-2.16c2.53-1.66 3.27-3.11 2.32-6.97-1.73-6.21-3.7-9.5-6.47-10.03l-4.42 0.21-1.3-0.21 0.67-1.29z" fill="#FEFFFE" stroke="#999684" stroke-linecap="round" stroke-linejoin="round" stroke-width=".5"/>
  <path d="m104.4 82.18c1.94 0.95 5.53 1.73 12.95 1.73s11.47-1.25 13.1-1.73l2.3 0.23 1.7 0.62" stroke="#999684" stroke-linecap="round" stroke-linejoin="round" stroke-width=".25"/>
  <path d="m107.2 68.03-1.7 9.88" stroke="#999684" stroke-linecap="round" stroke-linejoin="round" stroke-width=".25"/>
  <path d="m103.3 38.7 12.11 19.42" stroke="#999684" stroke-linecap="round" stroke-linejoin="round" stroke-width=".25"/>
  <path d="m107.5 39.06 9.7 19.06" stroke="#999684" stroke-linecap="round" stroke-linejoin="round" stroke-width=".25"/>
  <path d="m122.9 39.62-3.8 19" stroke="#999684" stroke-linecap="round" stroke-linejoin="round" stroke-width=".25"/>
  <path d="m127.9 39.62-7.01 19" stroke="#999684" stroke-linecap="round" stroke-linejoin="round" stroke-width=".25"/>
  <path d="m132 38.7-9 19.92" stroke="#999684" stroke-linecap="round" stroke-linejoin="round" stroke-width=".25"/>
  <path d="m65.42 39.34c1.62 3.97 3.59 6.36 8.84 10.09 7.57 5.38 9.66 13.42 9.14 21.79-0.44 6.99-1.18 12.23 2.31 16.91l-2.53 11.61-7.07 0.54c-7.73 0.63-16.93-2.06-23.03-10.34-2.97-4.08-4.25-10.93-8.46-16.18 2.56 0.22 8.21 2.92 14.29 3.8l6.51 1.06c-4.96-6.9-6.31-11.94-4-21.82 1.35-4.88 3.36-11.32 4-17.46z" fill="url(#paint0_linear_1133_10173)" stroke="#6B5035" stroke-linecap="round" stroke-linejoin="round" stroke-width=".5"/>
  <path d="m66.37 45.26 5.25 23.05 4.2-12.91-3.54 14.44 3.33 6.9 5.25-14.72-4.75 15.87 1.52 6.12 4.69 3.2" stroke="#6B5035" stroke-linecap="round" stroke-linejoin="round" stroke-width=".5"/>
  <path d="m61.95 58.92 13.24 16.2" stroke="#6B5035" stroke-linecap="round" stroke-linejoin="round" stroke-width=".5"/>
  <path d="m50.18 77.03 16.93 11.75-12.95-2.02 15.55 3.18 4.41 3.87-13.2 2.92" stroke="#6B5035" stroke-linecap="round" stroke-linejoin="round" stroke-width=".5"/>
  <path d="m60.85 78.62 7.42 9.51" stroke="#6B5035" stroke-linecap="round" stroke-linejoin="round" stroke-width=".5"/>
  <path d="m69.51 97.87 10.92-0.63" stroke="#6B5035" stroke-linecap="round" stroke-linejoin="round" stroke-width=".5"/>
  <path d="m109.7 106.8c0.63-9.81 5.7-16.81 12.03-21.61l7.49-6.2c0 5.87 0.81 8.76 1.51 15.9 0.53 5.49-0.86 10.8-4.66 14.32l-2.04 2.08 2.16-1.12c6.24-4.2 11.28-6.02 18.43-6.58l4.03-1.52c-3.01 4.93-4.78 11.38-9.43 17.13-4.27 5.25-10.59 7.14-17.35 5.89l-6.55-1.62c-3.55-4.7-6-10.68-5.62-16.67z" fill="url(#paint1_linear_1133_10173)" stroke="#6B5035" stroke-linecap="round" stroke-linejoin="round" stroke-width=".5"/>
  <path d="m128.8 86.01-10.79 17 10.19-5.8-7.74 6.4-3.95 6.79-1.03-4.27" stroke="#6B5035" stroke-linecap="round" stroke-linejoin="round" stroke-width=".5"/>
  <path d="m120.4 88.71 1.02 5.92" stroke="#6B5035" stroke-linecap="round" stroke-linejoin="round" stroke-width=".5"/>
  <path d="m134.7 105.9-4.34 8.58 13.33-6.48" stroke="#6B5035" stroke-linecap="round" stroke-linejoin="round" stroke-width=".5"/>
  <path d="m125.8 115.7 13.67 0.99" stroke="#6B5035" stroke-linecap="round" stroke-linejoin="round" stroke-width=".5"/>
  <path d="m86.91 115.1c-5.08-1.62-10.84 0-12.15 5.66-1.02 5.36 4.05 11.4 9.95 12.95 6.77 1.96 11.56-0.82 12.44-6.9 0.63-5.53-2.24-9.19-10.24-11.71z" fill="url(#paint2_linear_1133_10173)" stroke="#603822" stroke-linecap="round" stroke-linejoin="round" stroke-width=".7"/>
  <path d="m92.12 119.8 3.39 4.57" stroke="#603822" stroke-linecap="round" stroke-linejoin="round" stroke-width=".7"/>
  <path d="m103.7 113.1c-6.5-2.1-11.6 3.25-11.6 7.95 0 5.66 5.52 10.36 12.24 11.35 7.56 1.06 14.75-1.71 16.41-8.16 1.24-6.11-5.91-10.05-17.05-11.14z" fill="url(#paint3_linear_1133_10173)" stroke="#603822" stroke-linecap="round" stroke-linejoin="round" stroke-width=".7"/>
  <path d="m103.9 123.7-2.16 2.59" stroke="#603822" stroke-linecap="round" stroke-linejoin="round" stroke-width=".7"/>
  <path d="m67.59 124.3c-7.42 1.78-12.1 7.82-11.47 12.16 0.63 3.9 5.2 5.86 10.96 4.54 7.25-1.82 12.04-7.25 12.81-11.35 0.71-3.97-3.86-7.34-12.3-5.35z" fill="url(#paint4_linear_1133_10173)" stroke="#603822" stroke-linecap="round" stroke-linejoin="round" stroke-width=".7"/>
  <path d="m56.61 136.9c2.22-3.62 5.5-5.7 10.4-6.21 5.9-0.63 8.18-1.41 11.26-4.41" stroke="#603822" stroke-linecap="round" stroke-linejoin="round" stroke-width=".7"/>
  <path d="m95.12 139.8c2.1 5.18 6.89 7 13.76 7 7.56 0 12.35-3.37 12.35-8.07 0-3.87-3.45-6.82-10.04-7.7-8.18-1.03-18.58 2.1-16.07 8.77z" fill="url(#paint5_linear_1133_10173)" stroke="#603822" stroke-linecap="round" stroke-linejoin="round" stroke-width=".7"/>
  <path d="m90.05 165.3c-0.74-5.98 5.16-12.5 12.17-14.25 4.79-1.22 9.7 0.44 10.16 5.37 0.7 6.45-6.79 14.4-13.48 14.85-4.79 0.35-8.38-2.7-8.85-5.97z" fill="url(#paint6_linear_1133_10173)" stroke="#603822" stroke-linecap="round" stroke-linejoin="round" stroke-width=".7"/>
  <path d="m93.16 167.6c1.09-2.45 2.55-3.15 5.15-4.44 5.25-2.52 6.5-6.04 9.17-9.41" stroke="#603822" stroke-linecap="round" stroke-linejoin="round" stroke-width=".7"/>
  <path d="m115.6 149.2c-1.35-5.25 4.99-10.07 11.64-11.2 5.83-0.95 10.72 1.13 11.97 5.06 1.55 5.34-5.56 11.79-13.55 13.12-5 0.78-9.27-2.45-10.06-6.98z" fill="url(#paint7_linear_1133_10173)" stroke="#603822" stroke-linecap="round" stroke-linejoin="round" stroke-width=".7"/>
  <path d="m119 151.1c3.19 0.63 7.09-0.43 10.1-2.28 4.27-2.45 7.1-4.87 8.45-7.13" stroke="#603822" stroke-linecap="round" stroke-linejoin="round" stroke-width=".7"/>
  <path d="m65.21 146.8c0-4.92 2.45-7.69 8.56-6.95 7.42 0.95 14.04 6.54 14.56 11.4 0.63 5.48-3.69 9.42-8.87 8.53-7.04-1.02-14.25-7.03-14.25-12.98z" fill="url(#paint8_linear_1133_10173)" stroke="#603822" stroke-linecap="round" stroke-linejoin="round" stroke-width=".7"/>
  <path d="m67.11 143.3c3.19 0.63 4.96 1.76 7.72 5.48 2.53 3.59 6.29 3.87 9.26 5.65" stroke="#603822" stroke-linecap="round" stroke-linejoin="round" stroke-width=".7"/>
  <path d="m80.03 137.4c2.64-6.38 7.89-10.32 14.8-9.87 4.79 0.35 7.11 2.48 6.16 7.18-1.25 5.5-8.08 11.19-13.91 10.98-4.9-0.21-8.66-3.58-7.05-8.29z" fill="url(#paint9_linear_1133_10173)" stroke="#603822" stroke-linecap="round" stroke-linejoin="round" stroke-width=".7"/>
  <path d="m80.43 139.6c2.7-1.39 4.79-2.21 8.28-2.56 4.9-0.53 7-3.05 8.93-5.5" stroke="#603822" stroke-linecap="round" stroke-linejoin="round" stroke-width=".7"/>
  <path d="m97.64 55.11c-0.49 3.52-4.55 6.32-9.05 11.32-4.72 5.29-5.41 13.89-2.88 20.71l3.18 6.99 11.14-14.71c2.39-5.41 0-13.38-2.39-24.31z" fill="url(#paint10_linear_1133_10173)" stroke="#6B5035" stroke-linecap="round" stroke-linejoin="round" stroke-width=".5"/>
  <path d="m96.02 61.71-4.93 16.39-1.02-11.49" stroke="#6B5035" stroke-linecap="round" stroke-linejoin="round" stroke-width=".5"/>
  <path d="m90.07 73.91-2.04 10.2" stroke="#6B5035" stroke-linecap="round" stroke-linejoin="round" stroke-width=".5"/>
  <path d="m98.83 70.11-8.76 9.81-1.25 7.49" stroke="#6B5035" stroke-linecap="round" stroke-linejoin="round" stroke-width=".5"/>
  <path d="m95.34 77.96c-4.32 1.46-8.43 7.45-9.31 12.55l-1.02 4.54 3.42 4.2 6.2-6.11c3.49-4.5 2.66-9.23 0.71-15.18z" fill="#F9F2E6" stroke="#946F4B" stroke-linecap="round" stroke-linejoin="round" stroke-width=".5"/>
  <path d="m86.17 85.21c-1.74 0.88-1.46 6.45 0.28 9.7l2.16 3.24 1.02-0.52c-1.3-3.5-1.6-9.13-3.46-12.42z" fill="#F9F2E6" stroke="#946F4B" stroke-linecap="round" stroke-linejoin="round" stroke-width=".5"/>
  <path d="m72.49 85.73c0.52 3.59 4.32 8.98 8.82 11l6.58 2.17-0.14-1.76c-4.14-4.73-8.14-10.72-15.26-11.41z" fill="#F9F2E6" stroke="#946F4B" stroke-linecap="round" stroke-linejoin="round" stroke-width=".5"/>
  <path d="m108.9 93.35c-3.83-1.22-11.02-2.31-15.33 0.78l-4.79 3.81 1.94 1.1c5.76 2.23 12.49-0.07 18.18-5.69z" fill="#F9F2E6" stroke="#946F4B" stroke-linecap="round" stroke-linejoin="round" stroke-width=".5"/>
  <path d="m71.86 110.7c0.77-4.66 4.76-10.91 10.46-11.89l5.71-0.61 0.86 1.45c-2.64 3.09-3.04 7.79-9.77 9.44-4 0.85-6.11 1.41-7.26 1.61z" fill="#F9F2E6" stroke="#946F4B" stroke-linecap="round" stroke-linejoin="round" stroke-width=".5"/>
  <path d="m88.82 98.9c-1.81 2.37-3.29 7.36-4.11 10.08 2.2-0.96 4.11-4.93 4.92-7.92l-0.81-2.16z" fill="#F9F2E6" stroke="#946F4B" stroke-linecap="round" stroke-linejoin="round" stroke-width=".5"/>
  <path d="m89.49 98.22c-2.01 2.91-2.58 6.84-0.18 11.14 1.71 3.2 4.61 5.93 6.82 7.45 1.51-5.84 0.95-11.6-4.01-17.21l-2.63-1.38z" fill="#F9F2E6" stroke="#946F4B" stroke-linecap="round" stroke-linejoin="round" stroke-width=".5"/>
  <path d="m107.7 101.6c-2.56 2.09-2.77 8.54-1.1 12.74l3.18 5.85 1.49-0.56c2.67-5.29 3.52-9.49-3.57-18.03z" fill="#F9F2E6" stroke="#946F4B" stroke-linecap="round" stroke-linejoin="round" stroke-width=".5"/>
  <path d="m130.1 112c-2.97-0.78-9.18-0.56-12.28 2.6l-5.25 5.53 1.25 0.99c6.96 1.68 12.93-2.92 16.28-9.12z" fill="#F9F2E6" stroke="#946F4B" stroke-linecap="round" stroke-linejoin="round" stroke-width=".5"/>
  <path d="m93.23 123.6c1.8-3.17 5-5.02 9.88-4.69 2.97 0.2 5.5 1.13 7.71 1.95v2.02c-4.26 3.31-10.91 4.2-17.59 0.72z" fill="#F9F2E6" stroke="#946F4B" stroke-linecap="round" stroke-linejoin="round" stroke-width=".5"/>
  <path d="m111.8 122-1.84 1.09c-3 4-4.92 9.46-3.9 17.92 5.18-3.02 9.6-9.09 9.08-14.02l-3.34-4.99z" fill="#F9F2E6" stroke="#946F4B" stroke-linecap="round" stroke-linejoin="round" stroke-width=".5"/>
  <path d="m114 121.6 4.96 2.06c4.49 1.65 8.52 5.24 11.42 10.24-3.25 0.56-9.64-1.72-13.06-5.35l-4.33-5.03 1.01-1.92z" fill="#F9F2E6" stroke="#946F4B" stroke-linecap="round" stroke-linejoin="round" stroke-width=".5"/>
  <path d="m89.91 97.94 1.32-9.64" stroke="#946F4B" stroke-linecap="round" stroke-linejoin="round" stroke-width=".5"/>
  <path d="m89.31 98.01-8.19-7.5" stroke="#946F4B" stroke-linecap="round" stroke-linejoin="round" stroke-width=".5"/>
  <path d="m89.03 98.43-11.4-1.22" stroke="#946F4B" stroke-linecap="round" stroke-linejoin="round" stroke-width=".5"/>
  <path d="m90.07 98.43 8.19-7.71" stroke="#946F4B" stroke-linecap="round" stroke-linejoin="round" stroke-width=".5"/>
  <path d="m115.2 111c-1.74 2.72-2.48 6.69-2.79 9.18" stroke="#946F4B" stroke-linecap="round" stroke-linejoin="round" stroke-width=".5"/>
  <path d="m111.8 112c-1.67 1.74-1.77 5.4-0.42 8.13" stroke="#946F4B" stroke-linecap="round" stroke-linejoin="round" stroke-width=".5"/>
  <path d="m110.8 122-6.54-0.96" stroke="#946F4B" stroke-linecap="round" stroke-linejoin="round" stroke-width=".5"/>
  <path d="m115.2 123.8 5.6 2.52" stroke="#946F4B" stroke-linecap="round" stroke-linejoin="round" stroke-width=".5"/>
  <path d="m89.98 42.54c-2.53 3.09-4.27 6.78-3.32 13.37 1.67-4.5 5.53-7.19 3.32-13.37z" fill="#FEFFFE" stroke="#999684" stroke-linecap="round" stroke-linejoin="round" stroke-width=".5"/>
  <path d="m135.5 128.9c3.49-0.63 7.41-1.19 12.89 3.9-5.31 0.85-8.15 0.35-12.89-3.9z" fill="#FEFFFE" stroke="#999684" stroke-linecap="round" stroke-linejoin="round" stroke-width=".25"/>
  <path d="m53.72 109.1c4.06 0.28 6.7-0.27 12.9 7.28-6.01-0.07-9.13-1.29-12.9-7.28z" fill="#FEFFFE" stroke="#999684" stroke-linecap="round" stroke-linejoin="round" stroke-width=".5"/>
  <path d="m117.5 166.9c0.63 1.16 2.53 1.51 4.75 0.21 2.21-1.29 3.5-3.32 2.73-4.27-1.02-1.29-4.17-0.34-5.62 0.95-1.58 1.4-2.35 2.25-1.86 3.11z" fill="#FEFFFE" stroke="#999684" stroke-linecap="round" stroke-linejoin="round" stroke-width=".5"/>
  <defs>
    <linearGradient id="paint0_linear_1133_10173" x1="64.79" x2="79.31" y1="39.57" y2="102" gradientUnits="userSpaceOnUse">
      <stop stop-color="#938056" offset="0"/>
      <stop stop-color="#A8926A" offset=".4844"/>
      <stop stop-color="#87714B" offset="1"/>
    </linearGradient>
    <linearGradient id="paint1_linear_1133_10173" x1="115.5" x2="132" y1="79.01" y2="125.8" gradientUnits="userSpaceOnUse">
      <stop stop-color="#938056" offset="0"/>
      <stop stop-color="#A8926A" offset=".4844"/>
      <stop stop-color="#87714B" offset="1"/>
    </linearGradient>
    <linearGradient id="paint2_linear_1133_10173" x1="77.36" x2="88.71" y1="114.5" y2="134.3" gradientUnits="userSpaceOnUse">
      <stop stop-color="#936646" offset="0"/>
      <stop stop-color="#A8775A" offset=".4844"/>
      <stop stop-color="#87593A" offset="1"/>
    </linearGradient>
    <linearGradient id="paint3_linear_1133_10173" x1="95.67" x2="106.3" y1="112.5" y2="133.9" gradientUnits="userSpaceOnUse">
      <stop stop-color="#936646" offset="0"/>
      <stop stop-color="#A8775A" offset=".4844"/>
      <stop stop-color="#87593A" offset="1"/>
    </linearGradient>
    <linearGradient id="paint4_linear_1133_10173" x1="57.1" x2="66.21" y1="123.5" y2="140.7" gradientUnits="userSpaceOnUse">
      <stop stop-color="#936646" offset="0"/>
      <stop stop-color="#A8775A" offset=".4844"/>
      <stop stop-color="#87593A" offset="1"/>
    </linearGradient>
    <linearGradient id="paint5_linear_1133_10173" x1="97.01" x2="105.2" y1="130.6" y2="148" gradientUnits="userSpaceOnUse">
      <stop stop-color="#936646" offset="0"/>
      <stop stop-color="#A8775A" offset=".4844"/>
      <stop stop-color="#87593A" offset="1"/>
    </linearGradient>
    <linearGradient id="paint6_linear_1133_10173" x1="91.66" x2="103.1" y1="150.6" y2="172.7" gradientUnits="userSpaceOnUse">
      <stop stop-color="#936646" offset="0"/>
      <stop stop-color="#A8775A" offset=".4844"/>
      <stop stop-color="#87593A" offset="1"/>
    </linearGradient>
    <linearGradient id="paint7_linear_1133_10173" x1="116.7" x2="126.1" y1="137.6" y2="157.9" gradientUnits="userSpaceOnUse">
      <stop stop-color="#936646" offset="0"/>
      <stop stop-color="#A8775A" offset=".4844"/>
      <stop stop-color="#87593A" offset="1"/>
    </linearGradient>
    <linearGradient id="paint8_linear_1133_10173" x1="66.45" x2="77.76" y1="139.7" y2="160.7" gradientUnits="userSpaceOnUse">
      <stop stop-color="#936646" offset="0"/>
      <stop stop-color="#A8775A" offset=".4844"/>
      <stop stop-color="#87593A" offset="1"/>
    </linearGradient>
    <linearGradient id="paint9_linear_1133_10173" x1="81.02" x2="91.34" y1="127.5" y2="147.2" gradientUnits="userSpaceOnUse">
      <stop stop-color="#936646" offset="0"/>
      <stop stop-color="#A8775A" offset=".4844"/>
      <stop stop-color="#87593A" offset="1"/>
    </linearGradient>
    <linearGradient id="paint10_linear_1133_10173" x1="87.82" x2="98.7" y1="55.53" y2="95.68" gradientUnits="userSpaceOnUse">
      <stop stop-color="#938056" offset="0"/>
      <stop stop-color="#A8926A" offset=".4844"/>
      <stop stop-color="#87714B" offset="1"/>
    </linearGradient>
  </defs>
</svg>